<?xml version="1.0" encoding="UTF-8"?>
<svg id="Layer_1" data-name="Layer 1" xmlns="http://www.w3.org/2000/svg" viewBox="0 0 1000.16 999.92">
  <defs>
    <style>
      .cls-1 {
        fill: #bbbdbf;
      }

      .cls-1, .cls-2, .cls-3, .cls-4, .cls-5, .cls-6 {
        stroke-width: 0px;
      }

      .cls-2 {
        fill: #6d6e71;
      }

      .cls-3 {
        fill: #d0d2d3;
      }

      .cls-5 {
        fill: #f0f1f1;
        opacity: 0;
      }

      .cls-6 {
        fill: #a6a8ab;
      }
    </style>
  </defs>
  <rect id="Background" class="cls-5" width="1000.16" height="999.92"/>
  <g id="Logo">
    <g>
      <polygon class="cls-3" points="336.76 516.86 278.26 616 278.2 616 217.64 578.95 336.76 516.86"/>
      <polygon class="cls-1" points="494.34 525.47 494.34 749.78 404.51 694.13 494.34 525.47"/>
      <polygon class="cls-3" points="486.87 758.57 425.22 794.13 405.36 708.12 486.87 758.57"/>
      <polygon class="cls-2" points="412.84 791.1 297.78 727.64 392.63 703.95 412.84 791.1"/>
      <polygon class="cls-3" points="383.33 694.48 284.82 719.13 284.82 633.46 383.33 694.48"/>
      <polygon class="cls-6" points="388.01 683.92 287.96 621.93 349.6 517.77 388.01 683.92"/>
      <polygon class="cls-3" points="490.58 508.24 398.91 680.32 359.07 508.24 490.58 508.24"/>
      <polygon class="cls-6" points="490.69 496.82 359.19 496.82 399.03 324.68 490.69 496.82"/>
      <polygon class="cls-3" points="490.98 243.81 406.16 293.86 426.37 206.54 490.98 243.81"/>
      <polygon class="cls-3" points="494.34 255.05 494.34 479.36 403.48 308.7 494.34 255.05"/>
      <polygon class="cls-2" points="414.32 208.08 392.75 301.11 291.44 275.77 414.32 208.08"/>
      <polygon class="cls-3" points="379.51 309.56 284.82 365.49 284.82 285.93 379.51 309.56"/>
      <polygon class="cls-3" points="389.04 317.21 349.66 487.35 285.33 378.45 389.04 317.21"/>
      <polygon class="cls-1" points="339.55 502.47 209.48 570.28 209.48 434.73 339.55 502.47"/>
      <polygon class="cls-2" points="336.87 488.2 212.05 423.14 275.57 384.33 336.87 488.2"/>
    </g>
    <path class="cls-4" d="m728.76,372.47v-100.97l-150.65-83.02-78.06,45.08-78.06-45.08-150.59,83.02v99.66l-75.34,46v164.34l75.34,46v100.91l7.11,3.91.5,2.13,2.28-.63,133.24,73.51.38,1.5,1.68-.37,5.41,2.98,75.98-43.84.07.12,2.13-1.24,77.93,44.96,150.65-83.02v-99.66l74.38-45.36.96-.58v-164.4l-75.34-45.95Zm-154.98,178.45c4.93,0,8.93,4.01,8.93,8.93s-4.01,8.93-8.93,8.93-8.93-4.01-8.93-8.93,4.01-8.93,8.93-8.93Zm57.94-54.94c0-4.93,4.01-8.93,8.93-8.93s8.93,4.01,8.93,8.93-4.01,8.93-8.93,8.93-8.93-4.01-8.93-8.93Zm87.58,120.5l-70.98-41.21v-56.14c9.92-3.28,16.72-12.59,16.72-23.15,0-13.45-10.94-24.39-24.39-24.39s-24.39,10.94-24.39,24.39c0,10.52,6.77,19.82,16.65,23.13v65.04l80.44,46.7v80.02l-131.86-76.55v-51.32c9.9-3.3,16.68-12.6,16.68-23.14,0-13.45-10.94-24.39-24.39-24.39s-24.39,10.94-24.39,24.39c0,10.54,6.79,19.85,16.68,23.14v58.54l-.72,1.24.75.44.02.79h1.34l137.61,79.89-126.79,69.89-62.73-36.22,48.48-28.18c4.49,4.05,10.22,6.27,16.3,6.27,13.45,0,24.39-10.94,24.39-24.39s-10.94-24.39-24.39-24.39-24.39,10.94-24.39,24.39c0,1.59.16,3.17.46,4.73l-48.64,28.27V246.9l62.73-36.22v131.93c-9.9,3.3-16.68,12.6-16.68,23.14,0,13.45,10.94,24.39,24.39,24.39s24.39-10.94,24.39-24.39c0-10.54-6.79-19.85-16.68-23.14v-132.17l127.44,70.16v91.72l-57.41,33.33v-83.37c9.9-3.3,16.68-12.6,16.68-23.14,0-13.45-10.94-24.39-24.39-24.39s-24.39,10.94-24.39,24.39c0,10.54,6.79,19.85,16.68,23.14v92.32l-63.81,37.04c-4.44-3.86-10.05-5.97-15.96-5.97-13.45,0-24.39,10.94-24.39,24.39s10.94,24.39,24.39,24.39,24.39-10.94,24.39-24.39c0-1.74-.19-3.47-.56-5.17l136.35-79.16,60.28,36.74-73.26,42.53v61.87c-9.81,3.34-16.54,12.62-16.54,23.09,0,13.45,10.94,24.39,24.39,24.39s24.39-10.94,24.39-24.39c0-10.62-6.84-19.94-16.83-23.19v-52.9l65.33-37.93v138.21l-69.39,42.3Zm-138.97,85.84c4.93,0,8.93,4.01,8.93,8.93s-4.01,8.93-8.93,8.93-8.93-4.01-8.93-8.93,4.01-8.93,8.93-8.93Zm67.9-412.11c4.92,0,8.93,4.01,8.93,8.93s-4.01,8.93-8.93,8.93-8.93-4.01-8.93-8.93,4.01-8.93,8.93-8.93Zm-78.55,179.87c0,4.93-4.01,8.93-8.93,8.93s-8.93-4.01-8.93-8.93,4.01-8.93,8.93-8.93,8.93,4.01,8.93,8.93Zm8.52-95.4c-4.93,0-8.93-4.01-8.93-8.93s4.01-8.93,8.93-8.93,8.93,4.01,8.93,8.93-4.01,8.93-8.93,8.93Zm137.59,184.24c-4.93,0-8.93-4.01-8.93-8.93s4.01-8.93,8.93-8.93,8.93,4.01,8.93,8.93-4.01,8.93-8.93,8.93Zm-223.45-300.36v212.79l-86.2-161.9,86.2-50.9Zm-83.18,31.21l18.54-80.15,59.3,34.21-77.85,45.94Zm83.18,243.71v212.71l-85.19-52.77,85.19-159.94Zm-114.09,160.2l-91.44,22.88v-79.52l91.44,56.63Zm-162.15-270.68l58.77-35.91,56.71,96.11-115.49-60.2Zm80.75-147.94l114.5-63.07-20.1,86.68-94.4-23.61Zm-10.04,86.92v-73.5l87.47,21.83-87.47,51.67Zm74.88,132.83l38.07-164.49,87.59,164.49h-125.65Zm125.54,15.42l-87.59,164.43-38.07-164.43h125.65Zm-102.26,169.45l-94.3-58.42,58.1-98.18,36.2,156.6Zm1.06-358.38l-37.2,160.73-60.76-102.87,97.97-57.85Zm5.11,385.08l18.73,80.8-106.68-58.84,87.95-21.96Zm-179.67-139.4v-128.96l123.75,64.45-123.75,64.51Zm120-45.12l-53.93,91.39-55.85-34.16,109.78-57.23Zm151.49,236.65l-56.4,32.54-18.17-78.7,74.58,46.17Z"/>
  </g>
</svg>